<svg width="90" height="90" viewBox="0 0 90 90" fill="none" xmlns="http://www.w3.org/2000/svg">
<path d="M42.9632 85.4603C33.7032 84.4803 25.8932 81.0503 19.2032 75.0203C13.5732 69.9703 9.1432 62.3603 7.3832 54.8303L7.0332 53.3203H7.5332C8.0732 53.3203 9.0532 54.0103 11.2832 55.9303C12.3632 56.8703 12.5732 57.1203 12.5732 57.4803C12.5732 57.8203 12.5332 57.8803 12.3932 57.7403C12.1032 57.4503 11.9432 57.5503 12.0232 57.9703C12.1732 58.6703 13.5632 61.7903 14.4132 63.3303C16.1532 66.4403 17.9432 68.8103 20.3932 71.2503C23.3832 74.2203 26.5032 76.4503 30.2032 78.2703C35.3432 80.8003 39.5932 81.8303 45.4532 81.9803C48.7232 82.0503 50.6232 81.8903 53.6232 81.2803C58.5432 80.2503 63.9632 77.7203 68.2232 74.4403C68.9132 73.9103 69.4932 73.4603 69.5232 73.4303C69.5532 73.4203 69.4932 73.3003 69.3932 73.1703C69.1032 72.8203 70.0932 72.8803 70.4932 73.2403C70.6732 73.4003 71.2532 73.8403 71.8232 74.2403C72.4932 74.7103 72.8532 75.0503 72.8732 75.2703C72.9132 75.5203 72.8632 75.5903 72.6932 75.5603C72.5732 75.5303 71.7532 76.0903 70.8932 76.7803C68.7532 78.4903 66.5132 79.9703 64.5232 80.9803C62.6332 81.9603 59.4532 83.2903 57.7432 83.8703C56.2532 84.3503 53.6532 84.9703 51.8132 85.2603C50.8432 85.4203 44.0032 85.5803 42.9532 85.4703L42.9632 85.4603Z" fill="#AD3C1F"/>
<path d="M73.3123 72.4288C72.0123 71.5488 71.8923 71.4288 71.8923 71.0088C71.8923 70.6688 71.9323 70.5888 72.0523 70.6988C72.1723 70.8188 72.4523 70.5988 73.0923 69.8888C77.0723 65.4988 80.1423 59.5488 81.4723 53.5688C82.6323 48.4388 82.5523 42.3588 81.2823 37.1188C80.6223 34.3988 79.2723 30.9388 77.9023 28.3988C71.9723 17.5488 61.2423 10.5588 48.8823 9.51883C46.5123 9.30883 41.4123 9.63883 38.8923 10.1488C26.2223 12.7288 15.6923 22.1488 11.7023 34.4488C10.4823 38.1988 9.91235 41.7388 9.91235 45.6088C9.90235 48.8288 10.1423 51.0588 10.5523 51.5088L10.8423 51.8288H10.3923C10.0823 51.8288 9.48235 51.5688 8.63235 51.0388C7.93235 50.6188 7.08235 50.1188 6.74235 49.9388C6.39235 49.7588 6.11235 49.5688 6.11235 49.4988C6.11235 49.4288 6.07235 49.2688 6.02235 49.1488C5.96235 48.9888 6.02234 48.9388 6.21234 48.9888C6.46234 49.0588 6.47235 48.9188 6.43235 46.2688C6.20235 32.1788 13.4023 19.0988 25.4423 11.7588C29.6723 9.17883 34.4023 7.37883 39.1423 6.55883C43.0223 5.86883 49.0623 5.80883 52.5423 6.42883C62.9123 8.24883 71.8223 13.7388 77.9823 22.0988C81.8823 27.3888 84.3124 33.2588 85.3624 39.9688C85.6524 41.7588 85.7023 42.6688 85.7123 45.7588C85.7123 50.4788 85.3123 53.2988 84.0723 57.4088C82.5023 62.5788 79.3423 68.2788 75.9723 71.9588C75.2223 72.7788 75.2123 72.8088 75.4623 73.0888C75.7223 73.3788 75.7123 73.3788 75.2323 73.3788C74.8623 73.3788 74.3723 73.1288 73.3023 72.4288H73.3123Z" fill="#AD3C1F"/>
<path d="M65.5424 65.902C64.5624 65.262 64.1924 64.922 64.1924 64.682C64.1824 64.462 64.2524 64.392 64.4424 64.432C64.6024 64.472 64.7824 64.362 64.9424 64.092C65.0924 63.872 65.6024 63.122 66.0824 62.432C67.2724 60.762 68.8824 57.482 69.5824 55.332C70.7124 51.872 71.2124 48.842 71.2124 45.332V43.502L70.2324 43.592C68.8724 43.712 64.2124 44.892 61.9824 45.702C59.5524 46.562 56.4024 48.122 54.5124 49.382C51.8324 51.172 50.8824 52.022 47.1724 55.882C46.5724 56.502 46.4224 56.582 45.8824 56.582C44.9124 56.582 44.5324 56.102 44.1224 54.382C42.6824 48.482 39.6224 43.632 34.0724 38.442C31.8624 36.392 28.8724 34.022 28.4724 34.022C28.0624 34.022 27.6224 34.752 26.6724 36.992C24.7524 41.502 24.0924 44.942 24.2224 49.542C24.3124 52.562 24.5724 54.112 25.4424 56.722C26.0824 58.682 28.0524 62.732 28.3624 62.732C28.4824 62.732 28.5824 62.832 28.5824 62.952C28.5824 63.272 27.9424 63.232 26.4424 62.802C24.4324 62.232 23.1724 61.702 22.9424 61.362C22.6524 60.942 22.6624 60.772 23.0024 60.962C23.4424 61.192 23.4824 61.142 23.2524 60.682C22.7424 59.702 21.8024 57.152 21.4824 55.852C20.8824 53.482 20.6524 51.562 20.6524 48.882C20.6424 44.062 21.6524 39.522 23.7824 34.822C25.4224 31.222 26.6724 29.332 27.4324 29.332C28.5724 29.332 35.9024 35.012 38.6724 38.052C39.0924 38.502 39.4924 38.862 39.5524 38.832C39.6224 38.802 40.1824 38.232 40.8124 37.542C43.3724 34.702 47.8324 31.092 49.7924 30.262C50.5724 29.942 51.8724 29.942 52.3724 30.262C53.8924 31.262 57.3224 38.212 58.4624 42.612L58.6224 43.212L60.8924 42.432C63.7324 41.452 67.1724 40.602 70.5324 40.032C73.6124 39.502 74.0924 39.492 74.2824 39.872C74.5424 40.352 74.7824 44.132 74.6924 46.552C74.5024 51.942 73.3324 56.542 70.9524 61.182C70.2224 62.622 68.6424 65.142 67.8624 66.102C67.6524 66.362 67.6124 66.512 67.7324 66.642C67.8524 66.792 67.7724 66.832 67.3924 66.822C67.0424 66.812 66.4824 66.532 65.5424 65.902ZM47.4224 50.562C48.7124 49.202 51.4324 47.132 53.8724 45.672L55.3624 44.782L55.0224 43.462C54.5124 41.532 53.8524 39.722 52.9124 37.762C51.7424 35.302 50.8924 33.882 50.5824 33.882C50.2624 33.882 48.0324 35.542 46.2324 37.102C44.8224 38.332 41.9124 41.392 41.9124 41.662C41.9124 41.722 42.2924 42.332 42.7724 42.992C43.9324 44.632 45.3224 47.182 46.1024 49.082C46.4524 49.942 46.7424 50.742 46.7424 50.842C46.7424 51.132 46.9524 51.052 47.4124 50.562H47.4224Z" fill="#E29C3B"/>
<path d="M80.51 79.091C78.14 78.551 75.05 77.201 72.91 75.751C71.33 74.681 69.78 73.411 67.72 71.471C63.49 67.511 60.34 65.771 55.15 64.561C53.52 64.161 53.22 64.141 50.4 64.151C47.69 64.161 47.22 64.211 45.64 64.571C44.67 64.791 43.69 64.991 43.44 65.041C43.21 65.071 42.61 65.231 42.12 65.381C38.88 66.351 37.42 66.581 34.12 66.651C30.93 66.741 29.42 66.561 26.31 65.791C21.92 64.691 17.92 62.551 14.52 59.491C11.62 56.881 10.92 56.281 9.76 55.401C9.13 54.921 8.51 54.551 8.41 54.591C8.29 54.631 8.2 54.581 8.2 54.461C8.2 53.991 4.64 52.371 2.27 51.751C0.590001 51.311 0 50.811 0 49.801C0 49.021 0.29 48.631 1.01 48.391C2.06 48.051 3.28 48.261 5.74 49.201C9.12 50.471 11.72 52.171 15.31 55.471C17.43 57.401 18.56 58.331 20.09 59.321C24.28 62.061 29.51 63.491 34.58 63.281C36.63 63.191 37.13 63.091 41.83 61.871C47.7 60.331 51.42 60.171 56.1 61.211C58.5 61.751 60.16 62.341 62.49 63.471C65.13 64.741 67.19 66.141 69.3 68.081C72.48 71.001 73.77 72.081 75.28 73.061C77.11 74.261 78.59 74.911 80.76 75.481C82.65 75.981 83.06 76.231 83.35 77.031C83.53 77.531 83.51 77.671 83.32 78.141C82.91 79.121 82.03 79.411 80.51 79.081V79.091Z" fill="#103856"/>
<path d="M64.78 31.22C63.29 30.49 63.05 28.47 64.34 27.37C64.72 27.06 64.93 27 65.79 27C66.71 27 66.86 27.04 67.3 27.44C67.96 28.03 68.19 28.6 68.11 29.51C68.02 30.33 67.52 31 66.72 31.34C66.06 31.63 65.53 31.59 64.79 31.22H64.78Z" fill="#103856"/>
</svg>
